<?xml version="1.0" encoding="iso-8859-1"?>
<!-- Generator: Adobe Illustrator 16.0.0, SVG Export Plug-In . SVG Version: 6.00 Build 0)  -->
<!DOCTYPE svg PUBLIC "-//W3C//DTD SVG 1.1//EN" "http://www.w3.org/Graphics/SVG/1.1/DTD/svg11.dtd">
<svg version="1.1" id="Capa_1" xmlns="http://www.w3.org/2000/svg" xmlns:xlink="http://www.w3.org/1999/xlink" x="0px" y="0px"
	 width="506.466px" height="506.465px" viewBox="0 0 506.466 506.465" style="enable-background:new 0 0 506.466 506.465;"
	 xml:space="preserve">
<g>
	<path d="M506.466,116.775v191.212h-55.211c7.77-4.007,13.75-11.101,15.947-19.802c0.451-1.693,0.743-3.41,0.908-5.14h13.42V141.716
		H24.941v141.329h276.704l-6.601,24.941H0V116.775H506.466z M444.837,277.322l-88.67-50.607c-0.89-0.505-1.973-0.566-2.923-0.173
		c-0.938,0.393-1.656,1.215-1.906,2.207l-26.116,98.688c-0.384,1.437,0.243,2.94,1.534,3.689c1.279,0.749,2.898,0.555,3.958-0.48
		l31.719-30.939l36.857,87.964c0.694,1.681,2.637,2.466,4.323,1.766l30.446-12.763c1.668-0.706,2.466-2.631,1.754-4.311
		l-36.852-87.965l44.298-0.913c1.468-0.024,2.759-1.035,3.124-2.479c0.183-0.712,0.109-1.442-0.158-2.082
		C445.958,278.259,445.47,277.687,444.837,277.322z"/>
</g>
<g>
</g>
<g>
</g>
<g>
</g>
<g>
</g>
<g>
</g>
<g>
</g>
<g>
</g>
<g>
</g>
<g>
</g>
<g>
</g>
<g>
</g>
<g>
</g>
<g>
</g>
<g>
</g>
<g>
</g>
</svg>
